<?xml version="1.0" encoding="UTF-8" standalone="no" ?>
<!DOCTYPE svg PUBLIC "-//W3C//DTD SVG 1.1//EN" "http://www.w3.org/Graphics/SVG/1.1/DTD/svg11.dtd">
<svg xmlns="http://www.w3.org/2000/svg" xmlns:xlink="http://www.w3.org/1999/xlink" version="1.1" width="512" height="512" viewBox="0 0 512 512" xml:space="preserve">
<desc>Created with Fabric.js 5.2.4</desc>
<defs>
</defs>
<rect x="0" y="0" width="100%" height="100%" fill="transparent"></rect>
<g transform="matrix(1 0 0 1 256 256)" id="3a47c150-1266-4e9a-a678-7f4af3505a50"  >
<rect style="stroke: none; stroke-width: 1; stroke-dasharray: none; stroke-linecap: butt; stroke-dashoffset: 0; stroke-linejoin: miter; stroke-miterlimit: 4; fill: rgb(255,255,255); fill-rule: nonzero; opacity: 1; visibility: hidden;" vector-effect="non-scaling-stroke"  x="-256" y="-256" rx="0" ry="0" width="512" height="512" />
</g>
<g transform="matrix(0 0 0 0 0 0)" id="e108f03e-819f-4a31-a8af-008ed7157cb4"  >
</g>
<g transform="matrix(2.25 0 0 1.68 272.18 256)"  >
<path style="stroke: rgb(34,34,34); stroke-width: 2; stroke-dasharray: none; stroke-linecap: butt; stroke-dashoffset: 0; stroke-linejoin: round; stroke-miterlimit: 4; fill: rgb(232,65,65); fill-rule: nonzero; opacity: 0.98;" vector-effect="non-scaling-stroke"  transform=" translate(-287.47, -221.92)" d="M 270.37357996199546 293.2543416879523 C 249.7603954692113 285.50876221549095 234.98554784264036 260.8973352562495 238.34327707945363 239.899331584766 C 240.46056021762286 226.65849616725404 285.1299012384477 146.2773927216038 289.0309490555841 148.68837444144327 C 290.30419896166575 149.4752831252237 301.63453396136197 168.2154909093282 314.20947073198283 190.33328880557985 C 334.3531967277736 225.76366756896567 337.0729787521818 232.3703377054141 337.0729787521818 245.87144479163356 C 337.0729787521818 273.23763109254526 315.1713592225956 295.6536414057708 288.87392646312026 295.2025375369003 C 281.19996487536423 295.07088073630337 272.8748040435145 294.1941957933999 270.37357996199546 293.25434659429516 L 270.37357996199546 293.2543416879523 z M 291.02566193988037 279.4901565049914 C 291.7079673968319 275.9472079240885 290.1141370573081 274.21932648872274 286.16369708798663 274.21932648872274 C 277.16023928119535 274.21932648872274 264.6709819735237 262.81619608206347 261.8806908978612 252.04810833291594 C 258.90420902225003 240.5614817858148 251.01222918931148 239.1953793437275 249.84654103472042 249.96500277814744 C 247.60068227918373 270.71421562289225 287.2420572484731 299.13679148157814 291.0256570335365 279.4901565049914 L 291.02566193988037 279.4901565049914 z" stroke-linecap="round" />
</g>
<g transform="matrix(2.3 0 0 1.75 256 256)"  >
<path style="stroke: rgb(34,34,34); stroke-opacity: 0; stroke-width: 2; stroke-dasharray: none; stroke-linecap: butt; stroke-dashoffset: 0; stroke-linejoin: round; stroke-miterlimit: 4; fill: rgb(254,185,0); fill-rule: nonzero; opacity: 0.58;" vector-effect="non-scaling-stroke"  transform=" translate(-283.16, -215.57)" d="M 253.24046703407402 335.9543017819643 C 217.16450783147343 322.88264290293773 191.30645565193757 281.3477030212802 197.1829519789878 245.9108784286126 C 200.8884939412055 223.56527027025368 279.06609550676876 87.91184778624194 285.893475427017 91.98068869315676 C 288.12184104818516 93.30869803318006 307.95151381630717 124.93520246023343 329.9594139576465 162.26182344230176 C 365.2137550550593 222.05513223169754 369.97375443249 233.204735519218 369.97375443249 255.9895855033584 C 369.97375443249 302.17353512484914 331.6428535036781 340.0034278120278 285.6186639032762 339.24213217057843 C 272.18815658602387 339.0199444320592 257.6179594080946 337.5404261392372 253.24046703407402 335.95431006204717 L 253.24046703407402 335.9543017819643 z M 289.3845022821816 312.7254737647569 C 290.5786323709757 306.74629358331885 287.78920610233405 303.83027202717744 280.875382999676 303.83027202717744 C 265.11807113775393 303.83027202717744 243.26012205375542 284.5860267955758 238.37672196367132 266.4134975049361 C 233.1674619024995 247.02834182635604 219.35539212839436 244.72286872647243 217.31527463355974 262.89798968299044 C 213.38470733727866 297.91494784333736 282.7626642768138 345.88169034581085 289.3844936953929 312.7254737647569 L 289.3845022821816 312.7254737647569 z" stroke-linecap="round" />
</g>
<g transform="matrix(0 0 0 0 135.64 0)"  >
<g style=""   >
</g>
</g>
<g transform="matrix(0 0 0 0 135.64 0)"  >
<g style=""   >
</g>
</g>
<g transform="matrix(0 0 0 0 135.64 0)"  >
<g style=""   >
</g>
</g>
</svg>